# AST/ASF file generated using VICON BodyLanguage
# -----------------------------------------------
:version 1.10
:name VICON
:units
  mass 1.0
  length 0.45
  angle deg
:documentation
   .ast/.asf automatically generated from VICON data using
   VICON BodyBuilder and BodyLanguage model FoxedUp or BRILLIANT.MOD
:root
   order TX TY TZ RX RY RZ
   axis XYZ
   position 0 0 0  
   orientation 0 0 0 
:bonedata
  begin
     id 1 
     name lhipjoint
     direction 0.575328 -0.747301 0.332475 
     length 2.40933 
     axis 0 0 0  XYZ
  end
  begin
     id 2 
     name lfemur
     direction 0.34202 -0.939693 0  
     length 7.31453  
     axis 0 0 20  XYZ
    dof rx ry rz
    limits (-160.0 20.0)
           (-70.0 70.0)
           (-60.0 70.0)
  end
  begin
     id 3 
     name ltibia
     direction 0.34202 -0.939693 0   
     length 7.82185   
     axis 0 0 20   XYZ
    dof rx
    limits (-10.0 170.0)
  end
  begin
     id 4 
     name lfoot
     direction 0.0795993 -0.218697 0.972541   
     length 2.19173   
     axis -90 7.62852e-016 20   XYZ
    dof rx rz
    limits (-45.0 90.0)
           (-70.0 20.0)
  end
  begin
     id 5 
     name ltoes
     direction 1.53537e-011 -4.21894e-011 1   
     length 1.10023   
     axis -90 7.62852e-016 20   XYZ
    dof rx
    limits (-90.0 20.0)
  end
  begin
     id 6 
     name rhipjoint
     direction -0.513884 -0.783789 0.348708   
     length 2.29716  
     axis 0 0 0  XYZ 
  end
  begin
     id 7 
     name rfemur
     direction -0.34202 -0.939693 0   
     length 7.59573   
     axis 0 0 -20   XYZ
    dof rx ry rz
    limits (-160.0 20.0)
           (-70.0 70.0)
           (-70.0 60.0)
  end
  begin
     id 8 
     name rtibia
     direction -0.34202 -0.939693 0   
     length 7.66402   
     axis 0 0 -20   XYZ
    dof rx
    limits (-10.0 170.0)
 end
 begin
     id 9 
     name rfoot
     direction -0.137793 -0.378584 0.915253   
     length 2.27056  
     axis -90 -7.62852e-016 -20   XYZ
    dof rx rz
    limits (-45.0 90.0)
           (-20.0 70.0)
  end
  begin
     id 10 
     name rtoes
     direction -1.53493e-011 -4.22159e-011 1   
     length 1.11766   
     axis -90 -7.62852e-016 -20   XYZ
    dof rx
    limits (-90.0 20.0)
  end
  begin
     id 11 
     name lowerback
     direction -0.00732775 0.998356 -0.05685   
     length 2.16513   
     axis 0 0 0   XYZ
    dof rx ry rz
    limits (-20.0 45.0)
           (-30.0 30.0)
           (-30.0 30.0)
  end
  begin
     id 12 
     name upperback
     direction 0.0218081 0.999627 -0.0164647   
     length 2.16755   
     axis 0 0 0   XYZ
    dof rx ry rz
    limits (-20.0 45.0)
           (-30.0 30.0)
           (-30.0 30.0)
  end
  begin
     id 13 
     name thorax
     direction 0.02365 0.999661 0.0108914   
     length 2.16932   
     axis 0 0 0   XYZ
    dof rx ry rz
    limits (-20.0 45.0)
           (-30.0 30.0)
           (-30.0 30.0)
  end
  begin
     id 14 
     name lowerneck
     direction -0.0523929 0.978385 0.200044   
     length 1.63877   
     axis 0 0 0   XYZ
    dof rx ry rz
    limits (-20.0 45.0)
           (-30.0 30.0)
           (-30.0 30.0)
  end
  begin
     id 15 
     name upperneck
     direction 0.0448674 0.981321 -0.187074   
     length 1.69014   
     axis 0 0 0   XYZ
    dof rx ry rz
    limits (-20.0 45.0)
           (-30.0 30.0)
           (-30.0 30.0)
  end
  begin
     id 16
     name head
     direction 0.0199089 0.996118 -0.0857429  
     length 1.70094  
     axis 0 0 0   XYZ
    dof rx ry rz
    limits (-20.0 45.0)
           (-30.0 30.0)
           (-30.0 30.0)
  end
  begin
     id 17 
     name lclavicle
     direction 0.940366 0.30191 -0.156722  
     length 3.37521  
     axis 0 0 0   XYZ
    dof ry rz
    limits (-20.0 10.0)
           (0.0 20.0)
  end
  begin
     id 18 
     name lhumerus
     direction 1 -4.4897e-011 -1.7911e-027   
     length 5.25287   
     axis 180 -30 -90   XYZ
    dof rx ry rz
    limits (-60.0 90.0)
           (-90.0 90.0)
           (-90.0 90.0)
  end
  begin
     id 19
     name lradius
     direction 1 -4.48951e-011 1.04424e-027   
     length 3.51014   
     axis 180 -30 -90   XYZ
    dof rx
    limits (-10.0 170.0)
  end
  begin
     id 20
     name lwrist
     direction 1 -4.48997e-011 -9.5942e-028   
     length 1.75507   
     axis 8.48502e-016 90 90   XYZ
    dof ry
    limits (-180.0 0.0)
 end
  begin
     id 21 
     name lhand
     direction 1 -4.48831e-011 -1.90777e-027   
     length 0.706179   
     axis 1.22306e-015 90 90   XYZ
    dof rx rz
    limits (-90.0 90.0)
           (-45.0 45.0)
  end
  begin
     id 22 
     name lfingers
     direction 1 -4.49108e-011 -3.85244e-027   
     length 0.569339   
     axis 2.44611e-015 90 90   XYZ
    dof rx
    limits (0.0 90.0)
  end
  begin
     id 23
     name lthumb
     direction 0.707107 -6.34953e-011 0.707107   
     length 0.817461   
     axis -90 45 -1.62303e-014   XYZ
    dof rx rz
    limits (-45.0 45.0)
           (-45.0 45.0)
  end
  begin
     id 24 
     name rclavicle
     direction -0.905329 0.382405 -0.184787   
     length 3.30787  
     axis 0 0 0   XYZ 
    dof ry rz
    limits (-10.0 20.0)
           (-20.0 0.0)
  end
  begin
     id 25 
     name rhumerus
     direction -1 -4.48953e-011 -9.15316e-029  
     length 5.28721   
     axis 180 30 90   XYZ
    dof rx ry rz
    limits (-90.0 60.0)
           (-90.0 90.0)
           (-90.0 90.0)
  end
  begin
     id 26 
     name rradius
     direction -1 -4.48987e-011 9.37824e-028   
     length 3.50544   
     axis 180 30 90   XYZ
    dof rx
    limits (-10.0 170.0)
  end
  begin
     id 27 
     name rwrist
     direction -1 -4.48967e-011 -9.58414e-028   
     length 1.75272   
     axis 8.48502e-016 -90 -90   XYZ
    dof ry
    limits (-180.0 0.0)
  end
  begin
     id 28
     name rhand
     direction -1 -4.48904e-011 -1.91266e-027   
     length 0.884996   
     axis 1.22306e-015 -90 -90   XYZ
    dof rx rz
    limits (-90.0 90.0)
           (-45.0 45.0)
  end
  begin
     id 29
     name rfingers
     direction -1 -4.4909e-011 -3.85015e-027   
     length 0.713507   
     axis 2.44611e-015 -90 -90   XYZ
    dof rx
    limits (0.0 90.0)
  end
  begin
     id 30
     name rthumb
     direction -0.707107 -6.34853e-011 0.707107   
     length 1.02446   
     axis -90 -45 1.62303e-014   XYZ
    dof rx rz
    limits (-45.0 45.0)
           (-45.0 45.0)
  end
:hierarchy
  begin
    root lhipjoint rhipjoint lowerback
    lhipjoint lfemur
    lfemur ltibia
    ltibia lfoot
    lfoot ltoes
    rhipjoint rfemur
    rfemur rtibia
    rtibia rfoot
    rfoot rtoes
    lowerback upperback
    upperback thorax
    thorax lowerneck lclavicle rclavicle
    lowerneck upperneck
    upperneck head
    lclavicle lhumerus
    lhumerus lradius
    lradius lwrist
    lwrist lhand lthumb
    lhand lfingers
    rclavicle rhumerus
    rhumerus rradius
    rradius rwrist
    rwrist rhand rthumb
    rhand rfingers
  end

#!OML:ASF F:\twosubjects\two\Thursday\Session 1\justin.ASF
:FULLY-SPECIFIED
:DEGREES
102
root 21.7527 13.0804 3.09821 -174.22 -83.0023 153.497
lowerback 30.0646 3.58309 -0.75987
upperback 16.8252 2.24628 3.15061
thorax 2.43596 -0.0320192 3.27392
lowerneck -20.7953 5.19673 -4.78354
upperneck 25.6429 8.31287 1.49675
head 11.5402 3.36495 2.62633
rclavicle 7.15625e-015 -3.18055e-015
rhumerus 0.656287 23.0291 -77.3376
rradius 68.4539
rwrist 3.2798
rhand -12.9073 25.6122
rfingers 7.12502
rthumb 13.1825 -3.95106
lclavicle 7.15625e-015 -3.18055e-015
lhumerus -1.03344 -23.8487 89.8328
lradius 61.8318
lwrist -22.4017
lhand -13.6825 27.6284
lfingers 7.12502
lthumb 12.4353 57.2385
rfemur -50.7955 -3.45974 12.5566
rtibia 65.2627
rfoot 6.39646 -4.75513
rtoes -1.75878
lfemur -46.8163 10.9254 -11.3997
ltibia 61.079
lfoot 8.45436 -12.4724
ltoes -11.3461
103
root 21.7533 13.0839 3.09915 -174.921 -82.9186 154.46
lowerback 29.7247 3.61202 -0.715336
upperback 16.8303 2.30929 3.11239
thorax 2.58833 0.0112997 3.19289
lowerneck -20.5934 4.6286 -5.41664
upperneck 26.012 7.63791 1.72021
head 11.6317 3.00812 2.71391
rclavicle 4.17448e-014 1.51076e-014
rhumerus 0.709559 22.9382 -77.3879
rradius 68.4272
rwrist 3.32657
rhand -12.6353 25.9274
rfingers 7.12502
rthumb 13.4447 -3.61868
lclavicle 4.17448e-014 1.51076e-014
lhumerus -1.03387 -23.9755 89.7399
lradius 62.0499
lwrist -22.2311
lhand -13.7859 28.4326
lfingers 7.12502
lthumb 12.3356 58.0487
rfemur -51.0701 -3.23322 12.662
rtibia 65.2531
rfoot 6.38679 -4.93249
rtoes -2.42746
lfemur -47.0705 10.8428 -11.2531
ltibia 61.1302
lfoot 8.37921 -12.2748
ltoes -11.6293
104
root 21.7488 13.0815 3.10111 -175.628 -82.938 155.158
lowerback 29.826 3.64309 -0.814915
upperback 16.801 2.32507 3.16733
thorax 2.50253 0.00857711 3.30498
lowerneck -20.2576 4.1075 -6.1249
upperneck 26.4387 7.01176 2.0213
head 11.717 2.67236 2.84811
rclavicle -1.90833e-014 -2.22639e-014
rhumerus 0.731557 22.9721 -77.4275
rradius 68.3327
rwrist 3.36133
rhand -12.7028 26.0741
rfingers 7.12502
rthumb 13.3797 -3.47631
lclavicle -1.90833e-014 -2.22639e-014
lhumerus -1.07773 -23.7898 89.8154
lradius 62.1403
lwrist -22.2198
lhand -14.0394 29.2495
lfingers 7.12502
lthumb 12.0911 58.8802
rfemur -51.0487 -3.11964 12.713
rtibia 65.3015
rfoot 6.31985 -5.0155
rtoes -3.10009
lfemur -47.1275 11.1221 -11.2694
ltibia 61.2062
lfoot 8.25789 -12.4158
ltoes -11.7888
105
root 21.7479 13.0803 3.10118 -175.436 -82.9676 154.908
lowerback 29.8643 3.57194 -0.814498
upperback 16.8706 2.21467 2.9905
thorax 2.58169 -0.0446584 3.13827
lowerneck -19.9235 3.78868 -6.31659
upperneck 26.8796 6.56968 2.05537
head 11.8364 2.43292 2.82913
rclavicle 1.86858e-014 2.38542e-014
rhumerus 0.762364 22.9819 -77.6598
rradius 68.4012
rwrist 3.30165
rhand -12.8205 26.1218
rfingers 7.12502
rthumb 13.2662 -3.43599
lclavicle 1.86858e-014 2.38542e-014
lhumerus -0.981494 -23.7436 89.366
lradius 62.3696
lwrist -21.9989
lhand -14.038 29.4946
lfingers 7.12502
lthumb 12.0924 59.1252
rfemur -50.9019 -3.18702 12.7486
rtibia 65.2771
rfoot 6.34751 -4.86976
rtoes -4.39987
lfemur -46.9095 10.1428 -11.0859
ltibia 61.1371
lfoot 8.15155 -11.4958
ltoes -12.2456
106
root 21.7396 13.0692 3.10196 -175.175 -82.9981 154.585
lowerback 30.304 3.67768 -1.36854
upperback 16.689 2.22642 3.21377
thorax 2.14708 -0.0849852 3.69443
lowerneck -19.4159 3.49336 -6.86134
upperneck 27.4534 6.27346 2.01632
head 11.9599 2.20308 2.86049
rclavicle 3.97569e-016 -2.8625e-014
rhumerus 0.465493 23.5589 -77.3433
rradius 68.5825
rwrist 3.25202
rhand -13.2463 26.2313
rfingers 7.12502
rthumb 12.8558 -3.35278
lclavicle 3.97569e-016 -2.8625e-014
lhumerus -1.35116 -23.4374 89.6387
lradius 62.6488
lwrist -21.7064
lhand -14.2132 29.765
lfingers 7.12502
lthumb 11.9235 59.4055
rfemur -50.8024 -3.24104 12.7349
rtibia 65.2925
rfoot 6.363 -4.72152
rtoes -5.18641
lfemur -47.0008 11.3313 -11.4748
ltibia 61.1299
lfoot 8.13674 -12.5638
ltoes -11.3069
107
root 21.7509 13.0875 3.10495 -174.77 -82.9619 154.219
lowerback 29.889 3.62027 -1.28385
upperback 16.9454 2.1413 2.92284
thorax 2.64897 -0.123796 3.35083
lowerneck -19.0223 3.07442 -7.22138
upperneck 27.6473 5.58947 2.51587
head 11.9613 1.91507 2.99938
rclavicle 1.15295e-014 1.51076e-014
rhumerus 0.522593 23.7041 -77.4482
rradius 68.858
rwrist 3.34523
rhand -13.8442 26.1495
rfingers 7.12502
rthumb 12.2794 -3.46994
lclavicle 1.15295e-014 1.51076e-014
lhumerus -0.8793 -23.5654 88.9825
lradius 62.667
lwrist -21.4078
lhand -14.7209 30.5307
lfingers 7.12502
lthumb 11.4339 60.199
rfemur -50.8301 -3.03581 12.4779
rtibia 65.1502
rfoot 6.26248 -5.04116
rtoes -1.783
lfemur -46.816 10.0861 -11.2014
ltibia 61.0401
lfoot 8.1999 -11.4633
ltoes -11.9998
108
root 21.7457 13.1113 3.11591 -174.607 -82.5917 154.128
lowerback 29.6227 3.75989 -1.61497
upperback 17.0352 2.22968 2.92427
thorax 2.85263 -0.113092 3.52087
lowerneck -18.7598 2.6578 -7.88272
upperneck 28.1493 5.12381 2.63595
head 12.1139 1.62082 3.0933
rclavicle -1.27222e-014 7.95139e-016
rhumerus 0.448165 24.2068 -77.1206
rradius 69.1215
rwrist 3.18242
rhand -14.097 25.9241
rfingers 7.12502
rthumb 12.0356 -3.70983
lclavicle -1.27222e-014 7.95139e-016
lhumerus -0.707918 -23.2334 89.0352
lradius 62.5818
lwrist -21.3622
lhand -15.3767 31.8062
lfingers 7.12502
lthumb 10.8014 61.5085
rfemur -50.9505 -2.46503 12.029
rtibia 65.0492
rfoot 5.984 -5.61308
rtoes 4.88199
lfemur -46.745 10.385 -11.299
ltibia 61.0737
lfoot 8.14542 -11.3159
ltoes -11.9866
109
root 21.6965 13.1332 3.14143 -175.354 -81.5048 155.021
lowerback 29.0761 4.01064 -1.5816
upperback 17.1198 2.55749 2.6487
thorax 3.17857 0.0683233 3.11847
lowerneck -18.5157 2.25232 -8.34687
upperneck 28.7571 4.6258 2.68131
head 12.3283 1.31554 3.12581
rclavicle -4.37326e-015 3.18055e-015
rhumerus 0.668628 23.8656 -77.6041
rradius 68.7294
rwrist 3.46952
rhand -13.9689 26.0924
rfingers 7.12502
rthumb 12.159 -3.53428
lclavicle -4.37326e-015 3.18055e-015
lhumerus -0.725998 -23.2232 88.8424
lradius 62.6023
lwrist -21.2428
lhand -15.6932 32.6171
lfingers 7.12502
lthumb 10.4961 62.335
rfemur -51.0526 -2.16953 12.4656
rtibia 64.9043
rfoot 6.30917 -4.56278
rtoes -2.30786
lfemur -46.5323 11.2799 -11.3014
ltibia 61.1241
lfoot 8.02139 -11.1065
ltoes -11.5917
110
root 21.6865 13.111 3.14564 -175.167 -81.6689 155.063
lowerback 28.9303 3.91556 -1.69624
upperback 17.0893 2.4245 2.63488
thorax 3.21178 -0.00232065 3.20454
lowerneck -18.1788 1.86944 -8.85939
upperneck 29.2067 4.17856 2.6661
head 12.4636 1.02664 3.14341
rclavicle 3.57812e-015 0
rhumerus 0.992248 23.5581 -77.9674
rradius 68.4612
rwrist 3.60541
rhand -13.2493 26.1698
rfingers 7.12502
rthumb 12.8528 -3.41448
lclavicle 3.57812e-015 0
lhumerus -0.709884 -23.0502 88.7257
lradius 62.6771
lwrist -21.1738
lhand -15.6551 32.7162
lfingers 7.12502
lthumb 10.5329 62.4323
rfemur -51.2989 -2.60233 12.6494
rtibia 64.9439
rfoot 6.41271 -4.20507
rtoes -4.88242
lfemur -47.0554 11.8242 -11.5295
ltibia 61.2222
lfoot 8.07929 -11.7078
ltoes -11.3794
111
root 21.7556 13.0943 3.1306 -174.339 -83.9157 152.791
lowerback 32.2313 3.24912 -1.50394
upperback 16.9186 1.4485 3.05114
thorax 1.70716 -0.532919 3.55946
lowerneck -17.9015 1.49792 -9.4703
upperneck 29.5904 3.76388 2.71306
head 12.5827 0.752808 3.20603
rclavicle -6.36111e-015 7.95139e-016
rhumerus 1.18889 23.7947 -77.8146
rradius 68.5214
rwrist 3.454
rhand -12.7144 26.1123
rfingers 7.12502
rthumb 13.3684 -3.43879
lclavicle -6.36111e-015 7.95139e-016
lhumerus -0.601579 -22.7814 88.6411
lradius 62.8526
lwrist -21.0826
lhand -15.6147 31.7591
lfingers 7.12502
lthumb 10.5718 61.4732
rfemur -49.299 -4.19096 12.3248
rtibia 64.8844
rfoot 6.18314 -4.65763
rtoes -4.43451
lfemur -46.0038 8.88947 -11.3142
ltibia 61.0314
lfoot 8.37945 -11.397
ltoes -11.9653
112
root 21.7582 13.0966 3.13445 -174.662 -84.0229 153.017
lowerback 32.2683 3.27936 -1.46114
upperback 17.1351 1.45358 3.01684
thorax 1.93269 -0.547332 3.49836
lowerneck -17.9291 0.948418 -9.95933
upperneck 30.0867 3.08078 2.80621
head 12.8388 0.376308 3.23657
rclavicle 2.78299e-015 -1.59028e-014
rhumerus 1.46258 23.6893 -77.7091
rradius 68.5247
rwrist 3.36628
rhand -12.9954 26.2376
rfingers 7.12502
rthumb 13.0976 -3.33115
lclavicle 2.78299e-015 -1.59028e-014
lhumerus 0.215806 -22.9342 88.7034
lradius 62.3753
lwrist -21.2367
lhand -15.9301 30.6767
lfingers 7.12502
lthumb 10.2676 60.4061
rfemur -49.1323 -4.20419 12.3074
rtibia 64.8607
rfoot 6.16337 -4.72972
rtoes -4.52129
lfemur -45.8939 8.51128 -11.1824
ltibia 60.9736
lfoot 8.51755 -11.2835
ltoes -12.1714
